<?xml version="1.0" encoding="UTF-8" standalone="no"?>
<!DOCTYPE svg PUBLIC "-//W3C//DTD SVG 1.1//EN" "http://www.w3.org/Graphics/SVG/1.1/DTD/svg11.dtd">
<svg width="100%" height="100%" viewBox="0 0 53 47" version="1.1" xmlns="http://www.w3.org/2000/svg" xmlns:xlink="http://www.w3.org/1999/xlink" xml:space="preserve" xmlns:serif="http://www.serif.com/" style="fill-rule:evenodd;clip-rule:evenodd;stroke-linecap:round;stroke-linejoin:round;stroke-miterlimit:1.5;">
    <g transform="matrix(1,0,0,-1,-1103.67,400.267)">
        <path d="M1143.6,353.881C1143.6,353.881 1143.81,356 1143.81,357.574C1143.81,360.54 1145.12,366.95 1147.86,368.317C1149.83,369.304 1150.65,369.939 1152.93,369.939C1154.03,369.939 1155.96,369.343 1155.77,369.533C1154.45,370.847 1153.68,375.594 1152.93,377.844C1149.23,388.93 1142.74,397.579 1141.1,392.682C1140.46,390.763 1141.25,392.12 1143.31,390.005C1146.01,387.24 1146.04,380.691 1144.82,377.033C1143.55,373.238 1143.6,369.237 1143.6,365.074C1143.6,363.78 1143.52,360.793 1143.2,359.804C1142.91,358.924 1143.6,353.881 1143.6,353.881Z" style="stroke:black;stroke-width:0.53px;"/>
    </g>
    <g transform="matrix(-1,0,0,-1,1191.04,439.093)">
        <path d="M1150.67,429.8C1151.38,429.085 1152.85,430.455 1153.74,430.75C1155.6,431.369 1157.06,432.613 1159.01,433.588C1161.78,434.973 1165.21,435.269 1167.93,436.628C1170.08,437.704 1174.24,435.701 1176.04,434.804C1182.77,431.439 1185.85,428.679 1188.2,421.628C1188.57,420.517 1189.2,417.544 1188.6,416.358C1187.74,414.625 1187.66,412.441 1186.78,410.682C1184.99,407.103 1181.49,403.97 1179.28,401.763C1178.16,400.648 1175.69,400.814 1174.62,399.736C1174.17,399.293 1169.26,397.795 1168.33,398.723C1167.36,399.693 1164.99,400.292 1163.67,400.953C1161.63,401.973 1159.31,404.705 1157.79,406.223C1156.55,407.461 1156.54,409.903 1155.36,411.088C1154.83,411.622 1154.95,413.317 1154.95,413.317C1154.95,413.317 1154.74,410.082 1155.77,409.061C1156.46,408.363 1156.52,406.542 1156.98,405.615C1157.75,404.076 1159.41,402.378 1160.43,401.358C1165.48,396.305 1173.74,395.749 1180.09,398.926C1181.44,399.603 1183.52,399.695 1184.14,400.953C1185.2,403.064 1187.04,404.358 1187.79,406.628C1188.37,408.361 1188.59,410.648 1189.41,412.304C1192.94,419.356 1187.4,428.097 1183.33,432.169C1182.08,433.422 1180.32,433.759 1179.28,434.804C1177.96,436.125 1174.19,435.835 1173,437.034C1172.4,437.624 1164.33,439.31 1163.27,438.25C1162.27,437.255 1159.29,438.121 1158.2,437.034C1156.35,435.19 1152.99,434.053 1151.1,432.169" style="stroke:black;stroke-width:1.13px;"/>
    </g>
</svg>
